<svg xmlns="http://www.w3.org/2000/svg" width="1200" height="420" viewBox="0 0 1200 420" role="img" aria-labelledby="title desc">
  <title>Seedance 2.0 Skill OS</title>
  <desc>Editorial masthead on warm black: a high-contrast serif Seedance 2.0 wordmark above a calligraphic script Skill OS line, with monospace specification labels, a 21:9 viewfinder frame with timecode, and film sprocket details.</desc>
  <defs>
    <style>
      .display{font:400 94px Didot,'Bodoni MT','Hoefler Text',Baskerville,'Palatino Linotype',Georgia,'Times New Roman',serif;fill:#EDE6D6;letter-spacing:-1.5px}
      .display-i{font:italic 400 94px Didot,'Bodoni MT','Hoefler Text',Baskerville,'Palatino Linotype',Georgia,'Times New Roman',serif;fill:#EDE6D6;letter-spacing:-1.5px}
      .script{font:400 86px 'Snell Roundhand','Apple Chancery','Gabriola','Segoe Script','Brush Script MT',cursive;fill:#EDE6D6;letter-spacing:0}
      .tagline{font:italic 400 22px Didot,'Bodoni MT','Hoefler Text',Baskerville,'Palatino Linotype',Georgia,'Times New Roman',serif;fill:#9A917D;letter-spacing:0.5px}
      .eyebrow{font:400 13px ui-monospace,'SF Mono',SFMono-Regular,Menlo,Consolas,monospace;fill:#E2A75E;letter-spacing:7px}
      .spec{font:400 13px ui-monospace,'SF Mono',SFMono-Regular,Menlo,Consolas,monospace;fill:#9A917D;letter-spacing:3px}
      .spec-bright{font:400 13px ui-monospace,'SF Mono',SFMono-Regular,Menlo,Consolas,monospace;fill:#EDE6D6;letter-spacing:3px}
      .tiny{font:400 11px ui-monospace,'SF Mono',SFMono-Regular,Menlo,Consolas,monospace;fill:#9A917D;letter-spacing:2px}
      .tiny-amber{font:400 11px ui-monospace,'SF Mono',SFMono-Regular,Menlo,Consolas,monospace;fill:#E2A75E;letter-spacing:2px}
      .hair{stroke:#2E2A22;stroke-width:1}
      .mark{stroke:#E2A75E;stroke-width:2;fill:none}
      .wave{stroke:#9A917D;stroke-width:1.5}
    </style>
  </defs>

  <rect width="1200" height="420" fill="#100E0A"/>

  <g fill="#1F1B14">
    <rect x="84" y="16" width="22" height="14" rx="3"/><rect x="148" y="16" width="22" height="14" rx="3"/>
    <rect x="212" y="16" width="22" height="14" rx="3"/><rect x="276" y="16" width="22" height="14" rx="3"/>
    <rect x="340" y="16" width="22" height="14" rx="3"/><rect x="404" y="16" width="22" height="14" rx="3"/>
    <rect x="468" y="16" width="22" height="14" rx="3"/><rect x="532" y="16" width="22" height="14" rx="3"/>
    <rect x="596" y="16" width="22" height="14" rx="3"/><rect x="660" y="16" width="22" height="14" rx="3"/>
    <rect x="724" y="16" width="22" height="14" rx="3"/><rect x="788" y="16" width="22" height="14" rx="3"/>
    <rect x="852" y="16" width="22" height="14" rx="3"/><rect x="916" y="16" width="22" height="14" rx="3"/>
    <rect x="980" y="16" width="22" height="14" rx="3"/><rect x="1044" y="16" width="22" height="14" rx="3"/>
  </g>
  <line x1="72" y1="46" x2="1128" y2="46" class="hair"/>

  <text x="74" y="118" class="eyebrow">INTENT-FIRST AI FILMMAKING</text>
  <text x="70" y="208" class="display">Seedance 2.0</text>
  <text x="70" y="306" class="script">Skill OS<tspan fill="#E2A75E">.</tspan></text>
  <text x="74" y="346" class="tagline">Direct the model — don’t micro-manage the frame.</text>

  <g>
    <path class="mark" d="M790 96 h28 M790 96 v24"/>
    <path class="mark" d="M1128 96 h-28 M1128 96 v24"/>
    <path class="mark" d="M790 268 h28 M790 268 v-24"/>
    <path class="mark" d="M1128 268 h-28 M1128 268 v-24"/>
    <line x1="959" y1="172" x2="959" y2="192" stroke="#9A917D" stroke-width="1"/>
    <line x1="949" y1="182" x2="969" y2="182" stroke="#9A917D" stroke-width="1"/>
    <text x="838" y="86" class="tiny-amber">REC</text>
    <circle cx="824" cy="81" r="4" fill="#E2A75E"/>
    <text x="1058" y="86" class="tiny">21:9</text>
    <text x="790" y="292" class="tiny">SHOT 1 / 3</text>
    <text x="1014" y="292" class="tiny">00:00:15:00</text>
  </g>

  <g class="wave">
    <line x1="790" y1="322" x2="790" y2="334"/><line x1="800" y1="318" x2="800" y2="338"/>
    <line x1="810" y1="324" x2="810" y2="332"/><line x1="820" y1="314" x2="820" y2="342"/>
    <line x1="830" y1="320" x2="830" y2="336"/><line x1="840" y1="326" x2="840" y2="330"/>
    <line x1="850" y1="316" x2="850" y2="340"/><line x1="860" y1="322" x2="860" y2="334"/>
    <line x1="870" y1="312" x2="870" y2="344"/><line x1="880" y1="324" x2="880" y2="332"/>
    <line x1="890" y1="318" x2="890" y2="338"/><line x1="900" y1="326" x2="900" y2="330"/>
    <line x1="910" y1="320" x2="910" y2="336"/><line x1="920" y1="314" x2="920" y2="342"/>
    <line x1="930" y1="324" x2="930" y2="332"/><line x1="940" y1="318" x2="940" y2="338"/>
    <line x1="950" y1="322" x2="950" y2="334"/><line x1="960" y1="316" x2="960" y2="340"/>
    <line x1="970" y1="326" x2="970" y2="330"/><line x1="980" y1="320" x2="980" y2="336"/>
    <line x1="990" y1="324" x2="990" y2="332"/><line x1="1000" y1="312" x2="1000" y2="344"/>
    <line x1="1010" y1="322" x2="1010" y2="334"/><line x1="1020" y1="318" x2="1020" y2="338"/>
    <line x1="1030" y1="326" x2="1030" y2="330"/><line x1="1040" y1="320" x2="1040" y2="336"/>
    <line x1="1050" y1="316" x2="1050" y2="340"/><line x1="1060" y1="324" x2="1060" y2="332"/>
    <line x1="1070" y1="320" x2="1070" y2="336"/><line x1="1080" y1="326" x2="1080" y2="330"/>
    <line x1="1090" y1="318" x2="1090" y2="338"/><line x1="1100" y1="322" x2="1100" y2="334"/>
    <line x1="1110" y1="324" x2="1110" y2="332"/><line x1="1120" y1="320" x2="1120" y2="336"/>
  </g>
  <text x="790" y="366" class="tiny">NATIVE AUDIO</text>

  <line x1="72" y1="382" x2="1128" y2="382" class="hair"/>
  <text x="74" y="406" class="spec-bright">ROUTE · VERIFY · DIRECT · DELIVER</text>
  <text x="1128" y="406" text-anchor="end" class="spec">T2V · I2V · V2V · R2V · FLF2V</text>
</svg>
